<svg xmlns="http://www.w3.org/2000/svg" x="0px" y="0px" width="40" height="30" viewBox="0 0 48 48">
    <linearGradient id="yCvWBFJaw-9wXTw3fLh7Ma_tyFNYognr1tE_gr1" x1="-.302" x2="15.37" y1="4.42" y2="13.468" gradientUnits="userSpaceOnUse"><stop offset="0" stop-color="#262626" stop-opacity="0"></stop><stop offset="1" stop-color="#262626" stop-opacity=".8"></stop></linearGradient><path fill="url(#yCvWBFJaw-9wXTw3fLh7Ma_tyFNYognr1tE_gr1)" d="M8.421,14h0.052l0,0C11.263,14,13,12,13,9.5C12.948,6.945,11.263,5,8.526,5S4,6.945,4,9.5	C4,12,5.736,14,8.421,14z"></path><linearGradient id="yCvWBFJaw-9wXTw3fLh7Mb_tyFNYognr1tE_gr2" x1="-9.452" x2="22.516" y1="19.635" y2="38.092" gradientUnits="userSpaceOnUse"><stop offset="0" stop-color="#262626" stop-opacity="0"></stop><stop offset="1" stop-color="#262626" stop-opacity=".8"></stop></linearGradient><path fill="url(#yCvWBFJaw-9wXTw3fLh7Mb_tyFNYognr1tE_gr2)" d="M7,17h6v23c0,1.657-1.343,3-3,3H4V20C4,18.343,5.343,17,7,17z"></path><linearGradient id="yCvWBFJaw-9wXTw3fLh7Mc_tyFNYognr1tE_gr3" x1="12.025" x2="54.622" y1="16.161" y2="40.754" gradientUnits="userSpaceOnUse"><stop offset="0" stop-color="#262626" stop-opacity="0"></stop><stop offset="1" stop-color="#262626" stop-opacity=".8"></stop></linearGradient><path fill="url(#yCvWBFJaw-9wXTw3fLh7Mc_tyFNYognr1tE_gr3)" d="M35.283,17.031c-3.37-0.271-6.398,1.225-8.283,3.652V28c0-2.339,2.008-4.209,4.393-3.981	C33.473,24.217,35,26.083,35,28.172V43h6c1.657,0,3-1.343,3-3V26.813C44,21.812,40.267,17.432,35.283,17.031z"></path><linearGradient id="yCvWBFJaw-9wXTw3fLh7Md_tyFNYognr1tE_gr4" x1="4.548" x2="36.516" y1="19.635" y2="38.092" gradientUnits="userSpaceOnUse"><stop offset="0" stop-color="#262626" stop-opacity="0"></stop><stop offset="1" stop-color="#262626" stop-opacity=".8"></stop></linearGradient><path fill="url(#yCvWBFJaw-9wXTw3fLh7Md_tyFNYognr1tE_gr4)" d="M27,28v-7.316V17h-6c-1.657,0-3,1.343-3,3v23h6c1.657,0,3-1.343,3-3V28z"></path>
    </svg>